<svg xmlns="http://www.w3.org/2000/svg" xml:space="preserve" width="194px" height="46px" version="1.1" style="shape-rendering:geometricPrecision; text-rendering:geometricPrecision; image-rendering:optimizeQuality; fill-rule:evenodd; clip-rule:evenodd"
viewBox="0 0 22.24 5.28"
 xmlns:xlink="http://www.w3.org/1999/xlink"
 xmlns:xodm="http://www.corel.com/coreldraw/odm/2003">
 <defs>
  <style type="text/css">
   <![CDATA[
    .fil1 {fill:#FEFEFE}
    .fil0 {fill:#EBECEC}
    .fil2 {fill:#000002;fill-rule:nonzero}
   ]]>
  </style>
 </defs>
 <g id="Слой_x0020_1">
  <metadata id="CorelCorpID_0Corel-Layer"/>
  <rect class="fil0" x="0.41" y="0.59" width="21.83" height="4.69" rx="0.87" ry="1.12"/>
  <rect class="fil1" x="-0" y="0" width="21.83" height="4.69" rx="0.87" ry="1.12"/>
  <path class="fil2" d="M4.66 2.93l0.21 0 0 -1.41 -0.91 0 0 1.41 0.21 0 0 -1.22 0.48 0 0 1.22zm0.49 0l0.91 0 0 -1.41 -0.91 0 0 1.41zm0.21 -1.22l0.48 0 0 1.03 -0.48 0 0 -1.03zm1.73 -0.19l-0.55 0 -0.21 1.22 -0.11 0 0 0.43 0.21 0 0 -0.24 0.77 0 0 0.24 0.21 0 0 -0.43 -0.12 0 -0.21 -1.22zm-0.37 0.19l0.19 0 0.18 1.03 -0.54 0 0.18 -1.03zm1.6 -0.19l-0.55 0 -0.24 1.41 0.21 0 0.05 -0.32 0.49 0 0.06 0.32 0.21 0 -0.24 -1.41zm-0.37 0.19l0.19 0 0.12 0.71 -0.43 0 0.12 -0.71zm0.62 0l0.37 0 0 1.22 0.21 0 0 -1.22 0.37 0 0 -0.19 -0.95 0 0 0.19zm1.12 1.22l0.87 0 0 -0.85 -0.66 0 0 -0.57 -0.21 0 0 1.41zm0.21 -0.66l0.44 0 0 0.46 -0.44 0 0 -0.46zm1.45 0.66l0.79 0 0 -0.83 -0.22 0 0.22 -0.39 0 -0.19 -0.79 0 0 0.19 0.58 0 -0.22 0.39 -0.15 0 0 0.19 0.37 0 0 0.44 -0.58 0 0 0.19zm1.75 -1.41l-0.55 0 -0.24 1.41 0.21 0 0.05 -0.32 0.49 0 0.06 0.32 0.21 0 -0.24 -1.41zm-0.37 0.19l0.19 0 0.12 0.71 -0.43 0 0.12 -0.71zm1.66 -0.19l-0.87 0 0 0.83 0.28 0 -0.38 0.59 0.23 0 0.38 -0.59 0.14 0 0 0.59 0.21 0 0 -1.41zm-0.66 0.19l0.44 0 0 0.44 -0.44 0 0 -0.44zm0.94 1.22l0.91 0 0 -0.86 -0.24 0 0.24 -0.36 0 -0.19 -0.91 0 0 1.41zm0.21 -0.67l0.48 0 0 0.47 -0.48 0 0 -0.47zm0.48 -0.56l-0.24 0.36 -0.24 0 0 -0.36 0.48 0zm0.47 1.22l0.21 0 0 -0.64 0.48 0 0 0.64 0.21 0 0 -0.83 -0.31 0 0.37 -0.59 -0.23 0 -0.36 0.59 -0.17 0 0 -0.59 -0.21 0 0 1.41zm1.14 -1.41l0 0.83 0.66 0 0 0.39 -0.66 0 0 0.19 0.87 0 0 -1.41 -0.21 0 0 0.64 -0.44 0 0 -0.64 -0.21 0z"/>
 </g>
</svg>
