<svg xmlns="http://www.w3.org/2000/svg" viewBox="0 0 23.27 23.27"><defs><style>.cls-1{fill:#fff;}</style></defs><title>bus</title><g id="Слой_2" data-name="Слой 2"><g id="Слой_1-2" data-name="Слой 1"><rect class="cls-1" width="23.27" height="23.27"/><path d="M19.1,14.17V11.66a.87.87,0,0,0-.61-.83V8.31h.26a.26.26,0,0,1,.26.26v.74a.26.26,0,1,0,.52,0V8.57a.78.78,0,0,0-.78-.77h-.28a1.6,1.6,0,0,0-1.58-1.35H11.51V6.14a.83.83,0,0,0-.83-.83H5.9a.83.83,0,0,0-.83.83v.31H4.53a1.6,1.6,0,0,0-1.6,1.6v6.13a.86.86,0,0,0-.64.82.84.84,0,0,0,.85.84H4.76a2.1,2.1,0,0,0,4.18,0h2a.26.26,0,1,0,0-.51H8.91a2,2,0,0,0-.24-.65h5.42a2.29,2.29,0,0,0-.24.65H12.16a.26.26,0,1,0,0,.51h1.67a2.1,2.1,0,0,0,4.18,0h1a.84.84,0,0,0,.84-.84.85.85,0,0,0-.71-.83M18.59,13l-.83-.14-.09,0c-.26,0-.42-.08-.51-.21L17,12.37h1.58Zm-2.33-2.18a.43.43,0,0,1-.43-.43V8.73a.42.42,0,0,1,.43-.42H18v2.48ZM4.53,7H7.46a.26.26,0,0,0,.26-.26.26.26,0,0,0-.26-.26H5.59V6.14a.31.31,0,0,1,.31-.31h4.78a.31.31,0,0,1,.32.31v.31H8.64a.26.26,0,0,0-.26.26A.26.26,0,0,0,8.64,7h8.25a1.07,1.07,0,0,1,1.05.82H16.26a1,1,0,0,0-1,.94v1.63a1,1,0,0,0,1,1h2a.36.36,0,0,1,.36.35v.19H17a.49.49,0,0,0-.47.24.54.54,0,0,0,.06.54l.17.25a1.12,1.12,0,0,0,.85.44l.09,0,.92.15v.67H17.33a2.09,2.09,0,0,0-1.41-.55,2.11,2.11,0,0,0-1.42.55h-.32V9.09a1,1,0,0,0-1-1H11.49a1,1,0,0,0-1,1v5.07H8.26a2.09,2.09,0,0,0-1.41-.55,2.11,2.11,0,0,0-1.42.55h-2V13.4h.94a.55.55,0,0,0,.55-.55v-.53a.56.56,0,0,0-.55-.56H3.45v-.7H8.88a.64.64,0,0,0,.64-.64V8.53a.64.64,0,0,0-.64-.64H3.46A1.07,1.07,0,0,1,4.53,7M3.45,12.28h.94s0,0,0,0v.53a0,0,0,0,1,0,0H3.45Zm0-3.87H5v2.13H3.45ZM7,10.54H5.49V8.41H7ZM8.88,8.41A.12.12,0,0,1,9,8.53v1.89a.12.12,0,0,1-.12.12H7.51V8.41ZM2.81,15a.32.32,0,0,1,.33-.32H5a2.29,2.29,0,0,0-.24.65H3.14A.33.33,0,0,1,2.81,15m4,2.28a1.58,1.58,0,1,1,0-3.15,1.58,1.58,0,0,1,0,3.15M11,9.09a.49.49,0,0,1,.49-.5h.58v5.57H11Zm1.59,5.07V8.59h.58a.49.49,0,0,1,.49.5v5.07Zm3.33,3.12a1.58,1.58,0,1,1,0-3.15,1.58,1.58,0,0,1,0,3.15m3-2H18a2,2,0,0,0-.24-.65H19a.32.32,0,0,1,.32.32.33.33,0,0,1-.32.33"/><path d="M6.85,14.72a1,1,0,1,0,1,1,1,1,0,0,0-1-1m0,1.45a.47.47,0,0,1,0-.94.47.47,0,0,1,0,.94"/><path d="M15.92,14.72a1,1,0,1,0,1,1,1,1,0,0,0-1-1m0,1.45a.47.47,0,1,1,0-.94.47.47,0,1,1,0,.94"/></g></g></svg>