<svg xmlns="http://www.w3.org/2000/svg" viewBox="0 0 23.27 23.27"><defs><style>.cls-1{fill:#fff;}</style></defs><title>dinner2</title><g id="Слой_2" data-name="Слой 2"><g id="Слой_1-2" data-name="Слой 1"><rect class="cls-1" width="23.27" height="23.27"/><path d="M16.2,8,16,7.23a1.61,1.61,0,0,0-2-1,1.59,1.59,0,0,0-1,1L12.7,8a4.19,4.19,0,0,0-.12,1.93,1.79,1.79,0,0,0,.94,1.26l-.26,5.64a1.15,1.15,0,0,0,.28.87,1.24,1.24,0,0,0,1.74.08l.07-.08a1.08,1.08,0,0,0,.28-.84l-.25-5.67a1.77,1.77,0,0,0,.93-1.26A4.19,4.19,0,0,0,16.2,8m-.58,1.81a1.08,1.08,0,0,1-.73.83.36.36,0,0,0-.22.35l.26,5.92a.38.38,0,0,1-.1.32.54.54,0,0,1-.76,0,.4.4,0,0,1-.11-.34l.27-5.9a.38.38,0,0,0-.23-.35,1.1,1.1,0,0,1-.73-.83,3.46,3.46,0,0,1,.1-1.6l.22-.75a.91.91,0,0,1,1.17-.53.89.89,0,0,1,.54.53l.23.75a3.46,3.46,0,0,1,.09,1.6"/><path d="M10.76,6.14a.35.35,0,0,0-.35.35v3l-.95.95a.34.34,0,0,0-.1.27l.31,6.14a.5.5,0,0,1-.14.35.49.49,0,0,1-.7,0h0a.45.45,0,0,1-.13-.35L9,10.72a.35.35,0,0,0-.11-.27L8,9.5v-3a.34.34,0,0,0-.35-.35.35.35,0,0,0-.35.35V9.65a.32.32,0,0,0,.11.24l.94.95-.3,6a1.18,1.18,0,0,0,1.13,1.23,1.19,1.19,0,0,0,1.24-1.12v-.11l-.3-6L11,9.89a.31.31,0,0,0,.1-.24V6.49a.34.34,0,0,0-.35-.35"/><path d="M8.66,6.14a.35.35,0,0,0-.36.35v2.8a.36.36,0,1,0,.71,0V6.49a.35.35,0,0,0-.35-.35"/><path d="M9.71,6.14a.34.34,0,0,0-.35.35v2.8a.35.35,0,0,0,.35.36.36.36,0,0,0,.35-.36V6.49a.35.35,0,0,0-.35-.35"/><path d="M11.81.87A10.53,10.53,0,1,0,22.34,11.4,10.53,10.53,0,0,0,11.81.87m0,20.36a9.83,9.83,0,1,1,9.83-9.83,9.83,9.83,0,0,1-9.83,9.83"/><path d="M13,18a.36.36,0,0,0-.38-.32h0a6.19,6.19,0,0,1-1.49,0,.35.35,0,1,0-.08.7,7.59,7.59,0,0,0,1.65,0A.35.35,0,0,0,13,18"/><path d="M17.18,6.88a.35.35,0,1,0-.53.45,6.33,6.33,0,0,1-.38,8.55.36.36,0,0,0,0,.49.35.35,0,0,0,.5,0,7,7,0,0,0,.41-9.49"/><path d="M13.47,4.58a7.1,7.1,0,0,0-4.13.25.35.35,0,0,0-.21.45.37.37,0,0,0,.33.23.22.22,0,0,0,.12,0,6.42,6.42,0,0,1,3.73-.23.35.35,0,0,0,.16-.68"/><path d="M7.34,15.86A6.29,6.29,0,0,1,5.5,11.4,6.19,6.19,0,0,1,6.71,7.69a.37.37,0,0,0-.07-.5.36.36,0,0,0-.5.07h0a7,7,0,0,0,.7,9.08.35.35,0,0,0,.5,0,.34.34,0,0,0,0-.49"/></g></g></svg>