<?xml version="1.0" encoding="UTF-8"?>
<!DOCTYPE svg PUBLIC "-//W3C//DTD SVG 1.1//EN" "http://www.w3.org/Graphics/SVG/1.1/DTD/svg11.dtd">
<!-- Creator: CorelDRAW 2021.5 -->
<svg xmlns="http://www.w3.org/2000/svg" xml:space="preserve" width="49.3068mm" height="16.4356mm" version="1.1" style="shape-rendering:geometricPrecision; text-rendering:geometricPrecision; image-rendering:optimizeQuality; fill-rule:evenodd; clip-rule:evenodd"
viewBox="0 0 312.45 104.15"
 xmlns:xlink="http://www.w3.org/1999/xlink"
 xmlns:xodm="http://www.corel.com/coreldraw/odm/2003">
 <defs>
  <style type="text/css">
   <![CDATA[
    .fil0 {fill:none}
    .fil1 {fill:#FEFEFE}
   ]]>
  </style>
 </defs>
 <g id="Слой_x0020_1">
  <metadata id="CorelCorpID_0Corel-Layer"/>
  <path class="fil0" d="M43 0l61.15 0 0 104.15c0,-28.68 -23.31,-51.94 -52.08,-51.94 -28.76,0 -52.08,23.25 -52.08,51.94l0 -61.27c23.75,0 43,-19.2 43,-42.89z"/>
  <path class="fil1" d="M104.15 104.15l-104.15 0c0,-28.68 23.31,-51.94 52.08,-51.94 28.76,0 52.08,23.25 52.08,51.94z"/>
  <path class="fil1" d="M-0 0l43 0c0,23.68 -19.25,42.89 -43,42.89l0 -42.89z"/>
  <polygon class="fil1" points="104.15,0 208.3,104.15 104.15,104.15 "/>
  <rect class="fil1" x="208.3" width="104.15" height="52.08"/>
  <rect class="fil0" x="208.3" y="52.08" width="104.15" height="52.08"/>
  <polygon class="fil0" points="208.3,104.15 104.15,0 208.3,0 "/>
 </g>
</svg>
