<svg xmlns="http://www.w3.org/2000/svg" viewBox="0 0 23.27 23.27"><defs><style>.cls-1{fill:#fff;}.cls-2{fill:#1b1b19;}</style></defs><title>dinner</title><g id="Слой_2" data-name="Слой 2"><g id="Слой_1-2" data-name="Слой 1"><rect class="cls-1" width="23.27" height="23.27"/><path class="cls-2" d="M7.06,15.26c-.19.21-.43.48-.68.74s-.52.48-.79.74c-.14-.11-.24-.17-.33-.23L5,16.29l-.31,0a.92.92,0,0,0-1.05.83,1,1,0,0,0,.84,1.06l.56.11c.19.95.19.95.67,1.31h.76c.68-.54.74-.88.32-1.58a2.43,2.43,0,0,1-.19-.47L8,16.05l-1-.79m6-10.8a3.22,3.22,0,0,0,.21,1.74,7.07,7.07,0,0,0,2.19,3,6.33,6.33,0,0,0,2.86,1.33c.33.06.64.07.85-.32a2.23,2.23,0,0,0,0-.3,1.23,1.23,0,0,0,0-.33,6.87,6.87,0,0,0-4.78-5.11,1.64,1.64,0,0,0-1.32,0M7.37,14.35c.56.5.9,1.22,1.7,1.44.43-.43.82-.8,1.25-1.21l.6.36a3.13,3.13,0,0,0,2,.5,3.21,3.21,0,0,0,2-.87c1.1-1.08,2.17-2.2,3.28-3.31a7.79,7.79,0,0,1-5.93-5.88h-.09C11,6.48,9.89,7.57,8.81,8.7S7.81,12.18,9,13a5.63,5.63,0,0,1,.76.79c-.08.39-.28.47-.59.38l-.89-.84L7.59,14c-.07.08-.12.19-.22.34m3,1.12c-.56.46-.91,1.19-1.72,1L7.45,17.7a1.83,1.83,0,0,1,.15,1.6,1.62,1.62,0,0,1-.88.9,1.73,1.73,0,0,1-2.35-1.31c-1.31-.6-1.75-1.4-1.33-2.39a1.74,1.74,0,0,1,2.44-.77l1.23-1.24c-.15-.78.65-1.15,1.06-1.68-.13-.45-.27-.85-.37-1.27A3.63,3.63,0,0,1,8.32,8.2C8.85,7.58,9.46,7,10,6.45c.77-.77,1.56-1.53,2.31-2.32A1.64,1.64,0,0,1,14,3.64a7.51,7.51,0,0,1,5.41,4.54,4.16,4.16,0,0,1,.41,1.91,1.3,1.3,0,0,1-.38.91c-1.36,1.35-2.69,2.72-4.07,4.05a3.93,3.93,0,0,1-4.71.59l-.28-.17"/><path class="cls-2" d="M11.5,7.36,11.88,7c.08,0,.16,0,.2.09a1,1,0,0,1,.23.26,8.52,8.52,0,0,0,3,3.37c0,.37,0,.37-.27.64a9.41,9.41,0,0,1-3.52-4"/><path class="cls-2" d="M16.53,11.58c-.05.09-.1.19-.14.28a.41.41,0,0,1-.61-.23c.05-.11.12-.24.18-.35.32-.11.45.07.57.3"/><path class="cls-2" d="M14.65,6.05l0-.06.06,0a3.76,3.76,0,0,0,1.25,1.81,2.81,2.81,0,0,0,1.47.92h0s0,0,0-.06A4.88,4.88,0,0,0,14.72,6a.09.09,0,0,0-.07,0m3.81,3.59c-.21.27-.41.22-.65.14a6.32,6.32,0,0,1-3.15-2.25,6.61,6.61,0,0,1-.64-1,9.79,9.79,0,0,1-.44-1.15l.3-.37a5.78,5.78,0,0,1,2.21,1,5.81,5.81,0,0,1,2.37,3.66"/></g></g></svg>