<svg xmlns="http://www.w3.org/2000/svg" viewBox="0 0 23.27 23.27"><defs><style>.cls-1{fill:#fff;}.cls-2{fill:#1b1b19;}</style></defs><title>note</title><g id="Слой_2" data-name="Слой 2"><g id="Слой_1-2" data-name="Слой 1"><rect class="cls-1" width="23.27" height="23.27"/><path class="cls-2" d="M5.41,7.83h9V6.56a.41.41,0,0,0-.45-.43h-8c-.38,0-.47.11-.48.47s0,.78,0,1.23m0,.67v8.87c0,.74.32,1,1.06,1h7.08a.73.73,0,0,0,.71-.53,2.2,2.2,0,0,0,.11-.68V9a3,3,0,0,0-.07-.51Zm.32-3h8.35A1.29,1.29,0,0,1,15,6.92a.75.75,0,0,0,0,.15q0,5,0,9.93a4.89,4.89,0,0,1-.08.85A1.32,1.32,0,0,1,13.52,19Q9.9,19,6.28,19a1.43,1.43,0,0,1-1.47-1.35c0-.21,0-.42,0-.63V6.56a.92.92,0,0,1,.67-.95,1.65,1.65,0,0,0,.26-.14"/><path class="cls-2" d="M16.78,15V16h1.06A2.21,2.21,0,0,0,17.78,15Zm-.05,1.75c0,.45,0,.81,0,1.17s.21.53.53.53a.51.51,0,0,0,.57-.51,2.39,2.39,0,0,0-.06-1.19Zm1.13-2.42c0-1.92,0-3.75,0-5.59a3.32,3.32,0,0,0-.57-2.06,2,2,0,0,0-.58,1.55V13.7a5.61,5.61,0,0,0,.06.59Zm.61-1.49c0,1.58,0,3.15,0,4.73a2.45,2.45,0,0,1-.11.76A1.14,1.14,0,0,1,17.1,19a1.18,1.18,0,0,1-1-1.07c0-.21,0-.42,0-.63,0-3,0-6,0-9.06a2.73,2.73,0,0,1,.34-1.43c.18-.31.32-.66.5-1s.48-.35.66,0c.29.53.56,1.07.8,1.63a1.75,1.75,0,0,1,.06.69c0,1.55,0,3.1,0,4.65"/><path class="cls-2" d="M12.56,10.27H7.2V11.4h5.36ZM6.63,9.79a55.76,55.76,0,0,1,6.39,0,4.75,4.75,0,0,1,.05,2.2,6.32,6.32,0,0,1-.65.1c-1.71,0-3.41,0-5.12,0a1,1,0,0,1-.38,0c-.14-.09-.34-.24-.34-.37a6,6,0,0,1,0-1.85"/><path class="cls-2" d="M10,14.93h2.44a1.46,1.46,0,0,1,.47,0,.38.38,0,0,1,.24.24.43.43,0,0,1-.19.3,1.41,1.41,0,0,1-.46,0H7a.33.33,0,0,1-.37-.33c0-.23.2-.28.39-.28Z"/><path class="cls-2" d="M9.9,13.79H7.07c-.23,0-.45-.08-.46-.33s.25-.28.46-.28h5.65c.08,0,.17,0,.23,0s.18.14.18.22a.33.33,0,0,1-.11.26,1.91,1.91,0,0,1-.53.1H9.9"/><path class="cls-2" d="M11.34,17.29H10.25a1.25,1.25,0,0,1-.39,0A1.63,1.63,0,0,1,9.53,17a1.7,1.7,0,0,1,.29-.31c.07-.05.2,0,.31,0h2.42c.1,0,.23,0,.31,0a1.4,1.4,0,0,1,.28.31c-.1.09-.2.25-.31.26-.5,0-1,0-1.49,0Z"/></g></g></svg>