<svg xmlns="http://www.w3.org/2000/svg" viewBox="0 0 23.27 24.36"><defs><style>.cls-1{fill:#fff;}.cls-2{fill:#1b1b19;}</style></defs><title>packet</title><g id="Слой_2" data-name="Слой 2"><g id="Слой_1-2" data-name="Слой 1"><rect class="cls-1" width="23.27" height="24.36"/><path class="cls-2" d="M19.16,7.44l-.28-.06a2.9,2.9,0,0,0-.14.62c0,3.05,0,6.09,0,9.13a3.19,3.19,0,0,0,.26.75l.16-.05Zm-1.05,0-.44,0V17.87c.6-.14.49-.55.49-.91,0-3,0-5.91,0-8.86,0-.22,0-.45-.05-.67m-4-.68A2.38,2.38,0,0,0,11.8,4,2.35,2.35,0,0,0,9.51,6.75Zm3,.69H4.47V18.59h12.6ZM3.88,19.19V6.84H8.77C9,5.71,9.09,4.55,10.15,4a4,4,0,0,1,1.95-.48c1.3.05,2.44.79,2.72,3.27h4.87V19.14l-.16.15-1.1-1-.85.91Z"/></g></g></svg>