<svg xmlns="http://www.w3.org/2000/svg" viewBox="0 0 23.27 23.27"><defs><style>.cls-1{fill:#fff;}.cls-2{fill:#1c1c1a;}</style></defs><title>press</title><g id="Слой_2" data-name="Слой 2"><g id="Слой_1-2" data-name="Слой 1"><rect class="cls-1" width="23.27" height="23.27"/><path class="cls-2" d="M19,8.67H18a1.47,1.47,0,0,0-.9.31l-.74.62h-1.1V8.73A1.25,1.25,0,0,0,14,7.49h-.67V7a.6.6,0,0,1,.6-.6h1.4v.48a.31.31,0,0,0,.31.31h2.59a1.1,1.1,0,1,0,0-2.19H15.62a.31.31,0,0,0-.31.31V5.8h-1.4A1.21,1.21,0,0,0,12.7,7v.48H11.55a1.18,1.18,0,0,0-.5.11L10,6.58A2,2,0,0,0,8.61,6h-2A1.69,1.69,0,0,0,5,7.71V8.85H4.89A1.25,1.25,0,0,0,3.65,10.1v4.25a1.25,1.25,0,0,0,1.24,1.24H7.25a.92.92,0,0,0-.08.38v.88a.31.31,0,0,0,.31.31h.4l-.71,1.67a.31.31,0,0,0,.17.4.2.2,0,0,0,.11,0,.31.31,0,0,0,.29-.19l.8-1.91H9.1V19a.3.3,0,0,0,.3.31A.31.31,0,0,0,9.71,19V17.16h.62l.8,1.91a.31.31,0,0,0,.28.19.27.27,0,0,0,.12,0,.31.31,0,0,0,.17-.4L11,17.16h.34a.31.31,0,0,0,.3-.31V16a1.12,1.12,0,0,0-.07-.38H14a1.25,1.25,0,0,0,1.24-1.24V13.24h1.1l.74.61a1.42,1.42,0,0,0,.9.32h1a.3.3,0,0,0,.31-.3V12.75a.31.31,0,0,0-.62,0v.81H18a.78.78,0,0,1-.51-.18l-.72-.59V10.05l.72-.59A.78.78,0,0,1,18,9.28h.73v.78a.31.31,0,0,0,.62,0V9a.3.3,0,0,0-.31-.3Zm-3.08-3h2.29a.49.49,0,0,1,0,1H15.92ZM5.57,7.71A1.08,1.08,0,0,1,6.65,6.63h2a1.38,1.38,0,0,1,1,.39l1,.93L10,8.36,9.1,7.51a.7.7,0,0,0-.49-.2h-2a.41.41,0,0,0-.41.4V8.85H5.57Zm3.92,1a.63.63,0,0,1-.37.12H6.86V7.92H8.61l.06,0ZM11,16v.58H7.79V16a.38.38,0,0,1,.38-.38h2.47A.38.38,0,0,1,11,16Zm3.59-1.62A.63.63,0,0,1,14,15H4.89a.63.63,0,0,1-.63-.63v-2h.87a.31.31,0,0,0,0-.61H4.26V11h.87a.3.3,0,0,0,.3-.31.29.29,0,0,0-.3-.3H4.26v-.3a.63.63,0,0,1,.63-.63H9.12a1.2,1.2,0,0,0,.75-.26l1.3-1a.62.62,0,0,1,.38-.13H14a.63.63,0,0,1,.63.63Zm.61-4.14h.9v2.42h-.9Z"/><path class="cls-2" d="M11.42,19.29a.33.33,0,0,1-.31-.21l-.8-1.89H9.74V19a.34.34,0,1,1-.67,0V17.19H8.56l-.8,1.89a.33.33,0,0,1-.44.18.39.39,0,0,1-.18-.18.33.33,0,0,1,0-.26l.68-1.63H7.48a.34.34,0,0,1-.33-.34V16a1,1,0,0,1,.06-.35H4.89a1.27,1.27,0,0,1-1.27-1.27V10.1A1.27,1.27,0,0,1,4.89,8.83h0V7.71A1.72,1.72,0,0,1,6.65,6h2A2,2,0,0,1,10,6.56l1,1a1.24,1.24,0,0,1,.5-.1h1.12V7a1.24,1.24,0,0,1,1.24-1.24h1.37V5.32A.34.34,0,0,1,15.62,5h2.59a1.13,1.13,0,0,1,0,2.25H15.62a.34.34,0,0,1-.34-.34V6.44H13.91a.56.56,0,0,0-.57.57v.45H14a1.27,1.27,0,0,1,1.27,1.27v.84h1.06L17.05,9A1.42,1.42,0,0,1,18,8.64h1a.33.33,0,0,1,.33.33v1.09a.33.33,0,0,1-.33.33.34.34,0,0,1-.34-.33V9.31H18a.79.79,0,0,0-.49.17l-.71.58v2.72l.71.58a.79.79,0,0,0,.49.17h.7v-.78a.34.34,0,0,1,.34-.34.34.34,0,0,1,.33.34v1.12a.33.33,0,0,1-.33.33H18a1.42,1.42,0,0,1-.91-.32l-.74-.61H15.25v1.08A1.27,1.27,0,0,1,14,15.62H11.6a1,1,0,0,1,.06.35v.88a.34.34,0,0,1-.33.34H11l.69,1.63a.3.3,0,0,1,0,.26.32.32,0,0,1-.18.18A.27.27,0,0,1,11.42,19.29ZM9.68,17.13h.67v0l.81,1.91a.28.28,0,0,0,.26.17l.1,0a.29.29,0,0,0,.15-.37L11,17.13h.38a.27.27,0,0,0,.27-.28V16a.94.94,0,0,0-.07-.37l0,0H14a1.21,1.21,0,0,0,1.21-1.21V13.21h1.14l.75.61a1.41,1.41,0,0,0,.88.31h1a.28.28,0,0,0,.28-.27V12.75a.28.28,0,1,0-.56,0v.84H18a.86.86,0,0,1-.53-.19l-.73-.59V10h0l.72-.59A.85.85,0,0,1,18,9.25h.76v.81a.28.28,0,0,0,.56,0V9A.29.29,0,0,0,19,8.69H18a1.36,1.36,0,0,0-.88.32l-.75.62H15.19v-.9A1.21,1.21,0,0,0,14,7.52h-.7V7a.63.63,0,0,1,.63-.63h1.43v.51a.29.29,0,0,0,.28.28h2.59a1.07,1.07,0,1,0,0-2.13H15.62a.28.28,0,0,0-.28.28v.51H13.91A1.18,1.18,0,0,0,12.73,7v.51H11.55a1.16,1.16,0,0,0-.49.1h0l-1-1a2,2,0,0,0-1.37-.55h-2A1.66,1.66,0,0,0,5,7.71V8.88H4.89A1.22,1.22,0,0,0,3.68,10.1v4.25a1.21,1.21,0,0,0,1.21,1.21h2.4v0A1,1,0,0,0,7.2,16v.88a.28.28,0,0,0,.28.28h.44v0L7.2,18.84a.28.28,0,0,0,0,.22.31.31,0,0,0,.15.15l.1,0a.3.3,0,0,0,.26-.17l.81-1.93h.61V19a.28.28,0,1,0,.55,0Zm1.37-.55H7.76V16a.41.41,0,0,1,.41-.41h2.47a.41.41,0,0,1,.41.41Zm-3.23-.06H11V16a.35.35,0,0,0-.35-.35H8.17a.34.34,0,0,0-.35.35ZM14,15H4.89a.67.67,0,0,1-.66-.66v-2h.9a.28.28,0,0,0,0-.55h-.9V11h.9a.28.28,0,0,0,.27-.28.27.27,0,0,0-.27-.27h-.9V10.1a.66.66,0,0,1,.66-.66H9.12a1.22,1.22,0,0,0,.73-.25l1.3-1a.63.63,0,0,1,.4-.14H14a.67.67,0,0,1,.66.66v5.62A.67.67,0,0,1,14,15ZM4.29,12.37v2a.6.6,0,0,0,.6.6H14a.6.6,0,0,0,.6-.6V8.73a.6.6,0,0,0-.6-.6H11.55a.63.63,0,0,0-.37.12l-1.29,1a1.32,1.32,0,0,1-.77.26H4.89a.6.6,0,0,0-.6.6v.27h.84a.34.34,0,0,1,0,.67H4.29v.66h.84a.34.34,0,0,1,0,.67Zm11.86.29h-1V10.18h1Zm-.9-.06h.84V10.24h-.84ZM9.12,8.88H6.83v-1H8.61a.16.16,0,0,1,.09,0l.84.82,0,0A.69.69,0,0,1,9.12,8.88ZM6.89,8.83H9.12a.6.6,0,0,0,.32-.1L8.65,8s0,0,0,0H6.89Zm-.62.05H5.54V7.71A1.11,1.11,0,0,1,6.65,6.6h2a1.38,1.38,0,0,1,1,.4l1,1,0,0L10,8.4l0,0-.88-.85a.64.64,0,0,0-.47-.19h-2a.38.38,0,0,0-.38.37ZM5.6,8.83h.62V7.71a.43.43,0,0,1,.43-.43h2a.71.71,0,0,1,.51.21l.86.83.5-.38L9.55,7a1.32,1.32,0,0,0-.94-.38h-2a1,1,0,0,0-1.05,1ZM18.21,6.61H15.89v-1h2.32a.51.51,0,0,1,0,1ZM16,6.56h2.26a.46.46,0,0,0,0-.91H16Z"/><path class="cls-2" d="M12.61,11.86H11.06a1.11,1.11,0,0,0,0,2.22h1.55a1.11,1.11,0,0,0,0-2.22Zm0,1.6H11.06a.5.5,0,0,1,0-1h1.55a.5.5,0,1,1,0,1Z"/><path class="cls-2" d="M12.61,14.1H11.06a1.14,1.14,0,0,1,0-2.27h1.55a1.14,1.14,0,1,1,0,2.27Zm-1.55-2.21a1.08,1.08,0,0,0,0,2.16h1.55a1.08,1.08,0,0,0,0-2.16Zm1.55,1.6H11.06a.52.52,0,0,1-.52-.52.52.52,0,0,1,.52-.53h1.55a.53.53,0,0,1,.53.53A.52.52,0,0,1,12.61,13.49Zm-1.55-1a.47.47,0,0,0,0,.93h1.55a.47.47,0,1,0,0-.93Z"/><path class="cls-2" d="M19.25,11.25a.3.3,0,1,0-.5.34.3.3,0,1,0,.5-.34Z"/><path class="cls-2" d="M19,11.75a.35.35,0,0,1-.28-.14.34.34,0,0,1,0-.26.38.38,0,0,1,.14-.21.34.34,0,0,1,.26-.05.38.38,0,0,1,.21.14.37.37,0,0,1,0,.25.34.34,0,0,1-.15.22A.29.29,0,0,1,19,11.75Zm0-.61a.25.25,0,0,0-.15,0,.26.26,0,0,0-.12.18.28.28,0,0,0,0,.2.27.27,0,0,0,.38.08.26.26,0,0,0,.12-.18.28.28,0,0,0,0-.2h0a.26.26,0,0,0-.17-.12Z"/></g></g></svg>