<svg xmlns="http://www.w3.org/2000/svg" viewBox="0 0 23.27 23.27"><defs><style>.cls-1{fill:#fff;}.cls-2{fill:#1c1c1a;}</style></defs><title>vip-dinner</title><g id="Слой_2" data-name="Слой 2"><g id="Слой_1-2" data-name="Слой 1"><rect class="cls-1" width="23.27" height="23.27"/><path class="cls-2" d="M19.67,12h-.6a7.14,7.14,0,0,0-.67-2.61.25.25,0,1,0-.45.21,6.91,6.91,0,0,1,.61,2.4H7a.26.26,0,0,0-.25.26.25.25,0,0,0,.25.25H19.67a.23.23,0,0,1,.23.23V13a.23.23,0,0,1-.23.23H3.87A.23.23,0,0,1,3.64,13v-.31a.23.23,0,0,1,.23-.23H5.81a.26.26,0,0,0,.26-.25A.26.26,0,0,0,5.81,12H5a6.81,6.81,0,0,1,6.34-6.33h.9a6.8,6.8,0,0,1,5.16,3,.27.27,0,0,0,.36.06.25.25,0,0,0,.06-.35,7.3,7.3,0,0,0-5-3.1A1.3,1.3,0,0,0,13,4.53c0-.14-.06-.39-.47-.54A2.47,2.47,0,0,0,11,4c-.41.15-.47.4-.47.54a1.24,1.24,0,0,0,.19.66A7.32,7.32,0,0,0,4.47,12h-.6a.74.74,0,0,0-.73.74V13a.74.74,0,0,0,.73.74H6.59a2.72,2.72,0,0,0-.38.31h0l0,0L5,15.55a.68.68,0,0,0-.5-.09.69.69,0,0,0-.45.29l-.47.7a.69.69,0,0,0,.18,1L7,19.61a.69.69,0,0,0,.39.12h.13a.68.68,0,0,0,.45-.3l.47-.69a.7.7,0,0,0-.18-1h0a1.61,1.61,0,0,1,.85-.52,5.53,5.53,0,0,1,2,0,4.94,4.94,0,0,0,2.06-.11l.93-.26A4.67,4.67,0,0,0,15.78,16h0l1.6-1.41a.79.79,0,0,0,.24-.86h2A.74.74,0,0,0,20.4,13v-.31a.74.74,0,0,0-.73-.74Zm-7.9-7.59a1.19,1.19,0,0,1,.73.16.74.74,0,0,1-.33.59h-.81A.75.75,0,0,1,11,4.54a1.19,1.19,0,0,1,.73-.16Zm1.81,9.5a.75.75,0,0,0-.07-.12h2.43l-1,.69-1.49.43h-.05a.86.86,0,0,0,.23-1Zm-2.74-.12-.36.07-.28-.07ZM8,18.44l-.47.7a.2.2,0,0,1-.12.08.17.17,0,0,1-.14,0L4,17A.19.19,0,0,1,4,16.73l.47-.7A.2.2,0,0,1,4.57,16h0a.23.23,0,0,1,.11,0l.17.12h0l3.05,2.08a.18.18,0,0,1,0,.26Zm9.09-4.22h0l-1.59,1.42a4.35,4.35,0,0,1-1.52.76l-.93.26a4.39,4.39,0,0,1-1.84.1,6,6,0,0,0-2.24,0,2.14,2.14,0,0,0-1.15.72L5.4,15.84l1.16-1.41a2.36,2.36,0,0,1,1.53-.67h0a1.67,1.67,0,0,1,.52.09l.11,0,1.67.46h.12l2.19-.46a.37.37,0,0,1,.29.06.33.33,0,0,1,.12.14.37.37,0,0,1-.16.46l-.75.39a.25.25,0,0,0-.13.29.26.26,0,0,0,.25.19l1.11,0h.06l1.57-.46.07,0,1.57-1c.13-.08.31-.15.4,0a.29.29,0,0,1,0,.38Z"/><path class="cls-2" d="M7.36,19.82a.79.79,0,0,1-.44-.14L3.7,17.49a.78.78,0,0,1-.21-1.09L4,15.7a.78.78,0,0,1,1-.26L6.11,14l0,0,.19-.17H3.87A.82.82,0,0,1,3.05,13v-.31a.82.82,0,0,1,.82-.82h.52a7.4,7.4,0,0,1,6.2-6.76,1.39,1.39,0,0,1-.14-.6c0-.16.07-.45.53-.62a2.66,2.66,0,0,1,1.58,0c.46.17.53.46.53.62a1.27,1.27,0,0,1-.15.6,7.39,7.39,0,0,1,4.93,3.12.34.34,0,0,1-.08.47.34.34,0,0,1-.48-.09,6.71,6.71,0,0,0-5.1-2.9h-.89a6.72,6.72,0,0,0-6.25,6.16h.74a.34.34,0,0,1,0,.68H3.87a.14.14,0,0,0-.14.14V13a.14.14,0,0,0,.14.14h15.8a.14.14,0,0,0,.14-.14v-.31a.14.14,0,0,0-.14-.14H7a.34.34,0,1,1,0-.68H18.47a6.87,6.87,0,0,0-.6-2.28.3.3,0,0,1,0-.26A.29.29,0,0,1,18,9.16a.34.34,0,0,1,.45.16,7.35,7.35,0,0,1,.67,2.57h.52a.82.82,0,0,1,.82.82V13a.82.82,0,0,1-.82.82H17.74a.87.87,0,0,1-.3.85L15.85,16.1a4.94,4.94,0,0,1-1.74.88l-.93.26a4.77,4.77,0,0,1-2.09.11,5.39,5.39,0,0,0-2,0,1.51,1.51,0,0,0-.74.41.79.79,0,0,1,.14,1l-.47.7a.76.76,0,0,1-.5.33ZM4.61,15.53H4.49a.59.59,0,0,0-.39.26l-.47.69a.62.62,0,0,0,.16.85L7,19.53a.58.58,0,0,0,.46.1.59.59,0,0,0,.39-.26l.47-.69a.61.61,0,0,0-.16-.85l-.1-.07.06-.07a1.75,1.75,0,0,1,.9-.54,5.7,5.7,0,0,1,2.07,0,4.8,4.8,0,0,0,2-.11l.93-.26A4.65,4.65,0,0,0,15.73,16l1.6-1.42a.68.68,0,0,0,.21-.77l0-.11h2.16a.65.65,0,0,0,.64-.65v-.31a.65.65,0,0,0-.64-.65H19V12a7.48,7.48,0,0,0-.65-2.59.16.16,0,0,0-.1-.08.17.17,0,0,0-.12,0,.22.22,0,0,0-.09.1.13.13,0,0,0,0,.12A7.08,7.08,0,0,1,18.65,12v.09H7a.17.17,0,0,0-.16.17.16.16,0,0,0,.16.16H19.67a.33.33,0,0,1,.32.32V13a.32.32,0,0,1-.32.32H3.87A.31.31,0,0,1,3.56,13v-.31a.32.32,0,0,1,.31-.32H5.81A.16.16,0,0,0,6,12.23a.17.17,0,0,0-.17-.17H4.89V12a6.9,6.9,0,0,1,6.42-6.42h.91a6.84,6.84,0,0,1,5.24,3,.13.13,0,0,0,.1.06.19.19,0,0,0,.13,0,.17.17,0,0,0,0-.23,7.27,7.27,0,0,0-4.94-3.07l-.13,0,.07-.11a1.15,1.15,0,0,0,.18-.62c0-.12-.05-.33-.41-.46a2.59,2.59,0,0,0-1.46,0c-.36.13-.41.34-.41.46a1.15,1.15,0,0,0,.18.62l.07.11-.13,0A7.23,7.23,0,0,0,4.56,12v.08H3.87a.66.66,0,0,0-.65.65V13a.66.66,0,0,0,.65.65h3l-.24.16a4,4,0,0,0-.37.3l0,0L5,15.67l-.07,0A.53.53,0,0,0,4.61,15.53Zm2.75,3.78a.27.27,0,0,1-.15,0L4,17.07a.29.29,0,0,1-.08-.39L4.38,16a.23.23,0,0,1,.18-.12.28.28,0,0,1,.2,0L8,18.1a.32.32,0,0,1,.12.18.3.3,0,0,1,0,.21l-.47.7a.29.29,0,0,1-.18.11ZM4.61,16a.11.11,0,0,0-.09,0l-.47.7a.11.11,0,0,0,0,.15L7.3,19.12a.13.13,0,0,0,.09,0s0,0,.06,0l.47-.7a.11.11,0,0,0,0-.08s0,0-.05-.06L4.67,16.06A.07.07,0,0,0,4.61,16ZM7.8,17.58,5.27,15.86l1.22-1.48a2.48,2.48,0,0,1,1.59-.71,1.84,1.84,0,0,1,.56.1l1.79.48h.07l2.19-.45a.45.45,0,0,1,.36.07.38.38,0,0,1,.15.18.45.45,0,0,1-.2.57l-.75.39a.16.16,0,0,0-.08.19.15.15,0,0,0,.16.12h0l1.11,0h0L15,14.84l.05,0,1.57-1c.33-.21.48-.06.53,0a.39.39,0,0,1-.06.5h0l-1.61,1.42a4.16,4.16,0,0,1-1.54.78l-.93.26a4.42,4.42,0,0,1-1.88.1,6,6,0,0,0-2.21,0,2,2,0,0,0-1.1.68ZM5.53,15.82l2.24,1.52a2.27,2.27,0,0,1,1.15-.68,6,6,0,0,1,2.28,0,4.07,4.07,0,0,0,1.8-.1l.93-.25a4.15,4.15,0,0,0,1.48-.75L17,14.15a.22.22,0,0,0,0-.26c-.06-.08-.18,0-.28,0L15.18,15l-.09,0-1.56.45h-.09l-1.11,0h0a.34.34,0,0,1-.33-.26.33.33,0,0,1,.17-.38l.74-.4a.26.26,0,0,0,.13-.34A.24.24,0,0,0,13,14a.28.28,0,0,0-.22,0l-2.19.45a.29.29,0,0,1-.16,0L8.6,13.94a1.86,1.86,0,0,0-.49-.1h0a2.37,2.37,0,0,0-1.48.65ZM13.1,15l.19-.16a.78.78,0,0,0,.21-.91.53.53,0,0,0-.06-.1l-.09-.14h2.88l-1.32.86L13.4,15Zm.56-1.14a.94.94,0,0,1-.07.89l1.26-.36.8-.53Zm-3.18.08-.94-.25h2.15Zm1.72-8.7h-.88A.79.79,0,0,1,11,4.54v0a1.2,1.2,0,0,1,.8-.2,1.15,1.15,0,0,1,.79.2l0,0v0a.79.79,0,0,1-.36.67ZM11.77,5h.38a.7.7,0,0,0,.26-.47,1.43,1.43,0,0,0-.64-.12,1.43,1.43,0,0,0-.64.12.64.64,0,0,0,.26.46h.38Z"/></g></g></svg>